PathFileType	4	(x/y/z)	S06_M20_T22
DataRate	CameraRate	NumFrames	NumMarkers	Units	OrigDataRate	OrigDataStartFrame	OrigNumFrames
240	240	4	51	mm	240	384	511
Frame#	Time	Sternum			R.Acromium			L.Acromium			Top.Head			R.ASIS			L.ASIS			R.PSIS			L.PSIS			R.Great.Tro			L.Great.Tro			R.Iliac.Crest			L.Iliac.Crest			V.Sacral			R.Thigh.Upper.Post			R.Thigh.Lower.Ant			R.Thigh.Lower.Post			R.Thigh.Upper.Ant			R.Knee.Lat			R.Knee.Med			R.Shank.Upper.Post			R.Shank.Lower.Ant			R.Shank.Lower.Post			R.Shank.Upper.Ant			R.Ankle.Lat			R.Ankle.Med			R.Heel.Upper			R.Heel.Med			R.Heel.Lat			R.Toe.Lat			R.Toe.Med			R.Toe.Tip			L.Thigh.Upper.Post			L.Thigh.Lower.Ant			L.Thigh.Lower.Post			L.Thigh.Upper.Ant			L.Knee.Lat			L.Knee.Med			L.Shank.Upper.Post			L.Shank.Lower.Ant			L.Shank.Lower.Post			L.Shank.Upper.Ant			L.Ankle.Lat			L.Ankle.Med			L.Heel.Upper			L.Heel.Med			L.Heel.Lat			L.Toe.Lat			L.Toe.Med			L.Toe.Tip			Cervical.Spine			Back			
		X1	Y1	Z1	X2	Y2	Z2	X3	Y3	Z3	X4	Y4	Z4	X5	Y5	Z5	X6	Y6	Z6	X7	Y7	Z7	X8	Y8	Z8	X9	Y9	Z9	X10	Y10	Z10	X11	Y11	Z11	X12	Y12	Z12	X13	Y13	Z13	X14	Y14	Z14	X15	Y15	Z15	X16	Y16	Z16	X17	Y17	Z17	X18	Y18	Z18	X19	Y19	Z19	X20	Y20	Z20	X21	Y21	Z21	X22	Y22	Z22	X23	Y23	Z23	X24	Y24	Z24	X25	Y25	Z25	X26	Y26	Z26	X27	Y27	Z27	X28	Y28	Z28	X29	Y29	Z29	X30	Y30	Z30	X31	Y31	Z31	X32	Y32	Z32	X33	Y33	Z33	X34	Y34	Z34	X35	Y35	Z35	X36	Y36	Z36	X37	Y37	Z37	X38	Y38	Z38	X39	Y39	Z39	X40	Y40	Z40	X41	Y41	Z41	X42	Y42	Z42	X43	Y43	Z43	X44	Y44	Z44	X45	Y45	Z45	X46	Y46	Z46	X47	Y47	Z47	X48	Y48	Z48	X49	Y49	Z49	X50	Y50	Z50	X51	Y51	Z51	

384	1.5958	460.3	1299.9	313.09	327.81	1505.9	475.25	319.5	1497.9	124	375.61	1818.4	293.66	418.92	1063	436.84	438.71	1065.2	182.7	226.65	1071.9	333.49	230.19	1077.3	252.58	367.48	983.31	482.39	348.12	988.56	124.62	329.02	1130.6	464.54	364.52	1132.1	143.39	216.03	1040.2	294.96	447.59	746.19	490.74	522.97	681.92	461.19	460.08	657.83	478.36	511.12	772.17	467.11	492.72	555.75	469.7	501.67	551.71	340.03	325.03	406.49	478.61	330.14	318.1	458.54	272.54	349.96	468	381.5	374.9	469.79	210.8	233.05	448.11	226.96	223	363.06	135.92	236.28	396.11	123.27	204.22	368.22	121.68	210.45	433.13	251.31	96.247	485.36	278.16	77.243	369.61	338.55	53.576	417.64	414.17	729.07	156.84	461.89	652.91	220.74	395.77	642.42	178.38	475.25	743.11	194.01	379.47	546.36	198.23	400.4	558.8	318.09	329.59	316.59	218.08	393.29	254.97	225.67	323.53	246.1	239.07	395.25	324.52	210.24	371.24	106.75	247.71	375.97	131.18	333.39	289.8	73.698	291.95	293.47	47.166	324.6	297.04	47.816	262.98	478.38	44.106	233.38	492.14	46.18	353.85	567.04	57.574	302.64	270.1	1552.8	299.52	220.43	1277.8	300.02
385	1.6	464.89	1300.2	313.06	332.4	1506.1	475.29	324.21	1498.4	124.06	380.32	1818.6	293.92	423.68	1063.4	436.57	443.07	1065.4	182.45	231.24	1072.1	333.65	234.67	1077.6	252.73	372.47	983.74	482.38	352.07	988.78	124.55	333.74	1130.9	464.47	368.89	1132.3	143.32	220.6	1040.4	295.1	454.57	747.27	490.64	530.34	683.65	460.73	467.74	659.01	478.11	517.75	773.77	466.8	501.4	557.28	469.34	509.94	553.28	339.66	335.7	405.76	478.7	342.21	317.32	459.06	284.12	348.35	468.28	392.68	374.99	470.1	224.3	230.26	448.89	240.52	220.2	363.84	149.06	231.66	396.89	137.08	199.13	369.21	135.46	205.74	434.1	267.72	94.832	486.86	294.85	75.699	371.12	355.81	53.695	419.25	416.68	729.2	156.91	464.03	652.64	220.69	397.82	642.63	178.37	477.94	742.75	194.01	380.76	546.5	198.19	401.86	558.87	318.02	330.1	316.81	218.14	393.64	255.03	225.62	323.88	246.35	239.14	395.73	324.58	210.13	371.31	106.84	247.76	376.12	131.25	333.39	289.85	73.751	292	293.47	47.204	324.62	297.07	47.903	263.01	478.4	44.085	233.37	492.19	46.115	353.84	567.11	57.403	302.63	274.75	1553	299.57	225.02	1278.1	299.93
386	1.6042	469.49	1300.4	313.03	336.99	1506.2	475.33	328.92	1498.7	124.13	385.01	1818.9	294.18	428.44	1063.7	436.31	447.42	1065.5	182.2	235.83	1072.4	333.82	239.14	1077.8	252.88	377.45	984.13	482.38	356.02	988.97	124.48	338.46	1131.1	464.4	373.25	1132.5	143.24	225.16	1040.6	295.26	461.46	748.31	490.54	537.61	685.33	460.27	475.3	660.16	477.83	524.31	775.33	466.51	509.98	558.78	468.98	518.12	554.83	339.29	346.37	404.96	478.79	354.32	316.5	459.55	295.74	346.68	468.55	403.86	375.05	470.4	237.92	227.39	449.66	254.18	217.36	364.61	162.34	226.96	397.71	151.05	194	370.21	149.4	200.94	435.1	284.25	93.369	488.25	311.64	74.186	372.5	373.14	53.828	420.69	419.17	729.3	157	466.14	652.35	220.66	399.85	642.82	178.38	480.59	742.39	194.03	382.02	546.64	198.17	403.29	558.93	317.97	330.59	317.03	218.21	393.97	255.1	225.57	324.23	246.6	239.23	396.2	324.65	210.04	371.38	106.93	247.82	376.27	131.32	333.39	289.91	73.802	292.06	293.48	47.239	324.64	297.1	47.991	263.05	478.42	44.064	233.36	492.24	46.054	353.83	567.17	57.238	302.61	279.41	1553.2	299.63	229.61	1278.3	299.85
387	1.6083	474.1	1300.7	313	341.6	1506.3	475.38	333.63	1499.1	124.2	389.7	1819	294.43	433.19	1064	436.06	451.78	1065.6	181.96	240.4	1072.6	333.99	243.6	1078.1	253.02	382.42	984.5	482.39	359.98	989.13	124.42	343.18	1131.3	464.34	377.62	1132.7	143.17	229.72	1040.8	295.41	468.24	749.32	490.42	544.77	686.97	459.82	482.75	661.28	477.54	530.78	776.85	466.23	518.45	560.25	468.61	526.22	556.36	338.92	357.05	404.09	478.86	366.46	315.64	460.03	307.39	344.93	468.8	415.03	375.07	470.68	251.65	224.44	450.42	267.95	214.48	365.37	175.77	222.19	398.56	165.16	188.83	371.23	163.51	196.06	436.11	300.89	91.862	489.55	328.53	72.706	373.76	390.53	53.978	421.97	421.65	729.39	157.1	468.23	652.05	220.64	401.85	643.01	178.4	483.22	742	194.07	383.26	546.78	198.15	404.68	558.97	317.93	331.08	317.26	218.29	394.3	255.17	225.52	324.57	246.85	239.32	396.66	324.72	209.96	371.45	107.03	247.88	376.41	131.39	333.4	289.96	73.851	292.12	293.5	47.271	324.67	297.13	48.079	263.08	478.43	44.044	233.36	492.29	45.997	353.81	567.23	57.078	302.6	284.08	1553.4	299.69	234.21	1278.5	299.78
